<svg xmlns="http://www.w3.org/2000/svg" width="168.312" height="23.474" viewBox="0 0 168.312 23.474"><defs><style>.a{fill:#181818;fill-rule:evenodd;}</style></defs><g transform="translate(-0.9 -0.5)"><g transform="translate(0.9 0.5)"><g transform="translate(0 6.347)"><path class="a" d="M13.376,39.048a5.549,5.549,0,0,1-3.557,1.423c-4.213-.027-5.171-3.557-5.171-8.208s.9-8.208,5.116-8.208a4.761,4.761,0,0,1,3.42,1.45l2.326,3.83h.137v-5.39H15.51l-2.189,1.122A5.642,5.642,0,0,0,9.764,23.7C5.715,23.727.9,26.819.9,32.263s4.706,8.563,8.919,8.563a6,6,0,0,0,3.666-1.368l2.271,1.122h.137V34.945h-.137Z" transform="translate(-0.9 -23.7)"/></g><path class="a" d="M73.645,23.8C69.678,23.8,65,27.138,65,32.336S69.678,40.9,73.645,40.9a8.793,8.793,0,0,0,8.645-8.563c0-5.226-4.706-8.536-8.645-8.536m0,16.744c-4.022,0-4.952-3.31-4.952-8.208,0-4.87.93-8.208,4.952-8.208s4.952,3.31,4.952,8.208c-.027,4.87-.93,8.208-4.952,8.208" transform="translate(-47.463 -17.425)"/><g transform="translate(36.716 6.676)"><path class="a" d="M147.083,24.9v.274h2.107V35.652h-.027L141.611,24.9H135.1v.274h2.134V41.1H135.1v.274h4.651V41.1h-2.134V25.174h.027L149.491,41.7h.109V25.174h2.107V24.9Z" transform="translate(-135.1 -24.9)"/></g><path class="a" d="M209.932,24.9H202.6v.274h2.107V41.1H202.6v.274h7.332c3.639,0,9.877-1.587,9.877-8.344S213.6,24.9,209.932,24.9m-.055,16.2H208.1V25.174h1.778c4.323,0,6.293,2.955,6.293,7.961s-2,7.961-6.293,7.961" transform="translate(-147.417 -18.224)"/><path class="a" d="M284.037,41.1H277.8V32.7h3.146a12.679,12.679,0,0,1,2.243,3.2h.137v-6.73h-.164a12.679,12.679,0,0,1-2.243,3.2h-3.146v-7.2h5.581c1.614,1.067,3.037,4.159,3.037,4.159h.137V24.9H272.3v.274h2.134V41.1H272.3v.274h14.692V35.844h-.137a21.018,21.018,0,0,1-2.818,5.253" transform="translate(-198.048 -18.224)"/><g transform="translate(80.298)"><path class="a" d="M299.653.5,294.4,4.823l.055.082,5.362-1.231L299.379,2.5l.356-1.915Z" transform="translate(-294.4 -0.5)"/></g><g transform="translate(102.815 6.676)"><path class="a" d="M388.683,24.9v.274h2.134V35.652h-.055L383.211,24.9H376.7v.274h2.134V41.1H376.7v.274h4.651V41.1h-2.134V25.174h.055L391.091,41.7h.109V25.174h2.134V24.9Z" transform="translate(-376.7 -24.9)"/></g><path class="a" d="M445.411,22.8,438.27,39.571H436.3v.274h4.432v-.274H438.68l2.626-6.238h5.362l2.791,6.238h-2.134v.274h7.743v-.274H453.1L445.52,22.8Zm-1.477,4.35,2.626,5.882h-5.143Z" transform="translate(-317.179 -16.699)"/><path class="a" d="M517.481,30.91l-3.256-1.094c-1.614-.547-2.955-1.341-2.955-2.9,0-1.778,1.423-2.763,3.584-2.763a3.966,3.966,0,0,1,2.982,1.094l2.3,3.8h.137V23.8h-.137l-2.189,1.094a4.63,4.63,0,0,0-3.119-1.094,4.854,4.854,0,0,0-5.226,4.925c.027,2.326,1.642,3.529,3.5,4.213l3.31,1.2c1.751.629,2.955,1.4,2.955,3.119,0,1.614-1.094,3.256-3.967,3.283a5.923,5.923,0,0,1-3.776-1.45l-2.49-4.159H509l.109,5.691h.137l2.243-1.2a6.588,6.588,0,0,0,3.912,1.423c3.611,0,5.964-2.544,5.964-5.335.055-2.681-1.86-3.912-3.885-4.6" transform="translate(-369.989 -17.422)"/><g transform="translate(153.046 6.676)"><path class="a" d="M560.3,24.9v5.116h.137a25.614,25.614,0,0,1,2.955-4.843h2.873V41.1h-2.6v.274H572.2V41.1h-2.6V25.174h2.873a24.143,24.143,0,0,1,2.955,4.843h.137V24.9Z" transform="translate(-560.3 -24.9)"/></g></g></g></svg>