<svg xmlns="http://www.w3.org/2000/svg" width="210" height="102.973" viewBox="0 0 210 102.973">
  <g id="Costco_logo_color" data-name="Costco logo color" transform="translate(-830)">
    <g id="Bounding_box" data-name="Bounding box" transform="translate(830)" fill="#fff" stroke="#707070" stroke-width="1" opacity="0">
      <rect width="210" height="102.973" stroke="none"/>
      <rect x="0.5" y="0.5" width="209" height="101.973" fill="none"/>
    </g>
    <g id="Costco_Wholesale_logo_color" transform="translate(865 31.988)">
      <path id="Costco" d="M280.366,339l.359,5.677h.091a11.65,11.65,0,0,1,.682-1.753L283.454,339h3.18l.481,5.677h.091a12.09,12.09,0,0,1,.606-1.678l1.911-4h4.315l-5.835,9.513h-3.619l-.319-5.173h-.136a8.55,8.55,0,0,1-.485,1.438l-1.861,3.734h-3.529L276.065,339Z" transform="translate(-232.504 -309.76)" fill="#020a19"/>
      <path id="Costco-2" data-name="Costco" d="M298.461,339h4l-.609,3.2h2.543L305,339h4l-1.808,9.513h-4l.628-3.3h-2.544l-.628,3.3h-4Z" transform="translate(-237.23 -309.76)" fill="#020a19"/>
      <path id="Costco-3" data-name="Costco" d="M324.086,343.736c-.58,3.053-3.76,4.882-7.241,4.882s-5.968-1.83-5.387-4.882c.568-2.99,3.784-4.933,7.251-4.933S324.653,340.746,324.086,343.736Zm-8.458.05c-.207,1.085.53,1.83,1.787,1.83a2.4,2.4,0,0,0,2.484-1.83c.191-1.01-.465-1.854-1.783-1.854a2.434,2.434,0,0,0-2.488,1.854Zm9.367-4.832h4.149l-1.228,6.46H331.4l-.581,3.052h-7.631Zm16.219,6.106.185.139a4.091,4.091,0,0,0,2.424.871c.409,0,1.086-.139,1.168-.568s-.456-.466-.821-.53l-.81-.126c-1.576-.24-2.785-1.036-2.5-2.523.431-2.258,3.137-3.52,5.62-3.52a6.93,6.93,0,0,1,3.461.833l-1.583,2.435a4.168,4.168,0,0,0-2.271-.72c-.363,0-.915.112-.988.5-.068.353.437.4.743.467l.906.176c1.693.329,2.817,1.11,2.511,2.725-.433,2.271-3.13,3.394-5.6,3.394a10.752,10.752,0,0,1-4.225-.871Z" transform="translate(-240.609 -309.715)" fill="#020a19"/>
      <path id="Costco-4" data-name="Costco" d="M366.22,345.068l-.166-1.678a10.668,10.668,0,0,1-.039-1.224h-.152l-1.308,2.9Zm-3.612,3.445h-4.391L363.992,339h4.587l2.265,9.513h-4.391l-.153-1.186h-3.133l-.56,1.186Z" transform="translate(-251.362 -309.76)" fill="#020a19"/>
      <path id="Costco-5" data-name="Costco" d="M375.965,339h4.149l-1.228,6.459h3.483l-.581,3.053h-7.631Zm8.4,0h7.678l-.495,2.6h-3.5l-.173.908h3.194l-.469,2.473h-3.2l-.176.933h3.62l-.5,2.6h-7.8Z" transform="translate(-255.021 -309.76)" fill="#020a19"/>
      <g id="Costco-6" data-name="Costco">
        <path id="Path_7" data-name="Path 7" d="M299.97,314.661l5.238-.2-4.4,14.484h9.4l4.394-14.484,5.12.2,2.086-6.877H302.055Zm-19.461,3.761c-1.314,6.792-8.515,10.863-16.4,10.863s-13.515-4.07-12.2-10.863c1.287-6.653,8.571-10.974,16.426-10.974s13.465,4.321,12.175,10.973Zm-19.161.112c-.466,2.414,1.2,4.07,4.049,4.07s5.157-1.656,5.624-4.07c.435-2.245-1.054-4.125-4.038-4.125a5.5,5.5,0,0,0-5.635,4.125Z" transform="translate(-226.915 -302.517)" fill="#020a19"/>
        <path id="Path_8" data-name="Path 8" d="M270.2,325.878a24.756,24.756,0,0,0,9.572,1.937c5.591,0,11.7-2.5,12.676-7.55.7-3.593-1.848-5.333-5.687-6.063l-2.051-.393c-.693-.141-1.838-.253-1.686-1.039.168-.87,1.418-1.123,2.241-1.123a9.555,9.555,0,0,1,5.144,1.6L294,307.829a15.919,15.919,0,0,0-7.839-1.851c-5.625,0-11.759,2.807-12.731,7.831-.641,3.312,2.1,5.08,5.67,5.614l1.832.28c.831.142,2.049.225,1.864,1.179s-1.719,1.263-2.646,1.263a9.372,9.372,0,0,1-5.49-1.936l-.42-.309Zm62.518-19.03a21.822,21.822,0,0,0-6.144-.87c-7.58,0-14.469,4.94-15.664,11.115-1.168,6.035,3.688,10.722,11.063,10.722a26.959,26.959,0,0,0,6.852-.842l1.806-7.915a9.928,9.928,0,0,1-5.765,1.965c-2.811,0-4.9-1.8-4.449-4.125.445-2.3,3.1-4.126,5.909-4.126a7.623,7.623,0,0,1,5.11,2.134Zm15.049-.87c-7.854,0-15.139,4.321-16.426,10.974-1.314,6.792,4.313,10.863,12.2,10.863s15.09-4.07,16.4-10.863c1.291-6.652-4.321-10.974-12.174-10.974Zm-1.347,6.96c2.984,0,4.473,1.88,4.037,4.125-.466,2.414-2.777,4.07-5.624,4.07s-4.516-1.656-4.049-4.07a5.5,5.5,0,0,1,5.636-4.125ZM246.939,302.1a28.032,28.032,0,0,0-7.661-1.052c-9.454,0-18.047,5.971-19.536,13.435-1.455,7.3,4.6,12.96,13.8,12.96a34.636,34.636,0,0,0,8.545-1.017l2.252-9.568a12.627,12.627,0,0,1-7.191,2.375c-3.508,0-6.111-2.172-5.55-4.989.555-2.781,3.862-4.988,7.369-4.988a9.661,9.661,0,0,1,6.372,2.579l1.6-9.735Z" transform="translate(-219.526 -301.048)" fill="#020a19"/>
        <path id="Path_9" data-name="Path 9" d="M394.271,333.62a1.87,1.87,0,0,1,1.861-1.334c.89,0,1.493.6,1.353,1.334a1.875,1.875,0,0,1-1.861,1.339C394.728,334.96,394.131,334.363,394.271,333.62Zm2.8,0c.112-.6-.314-.985-1-.985a1.306,1.306,0,0,0-1.374.985c-.113.6.3.99,1,.99a1.32,1.32,0,0,0,1.375-.99Zm-.572.7h-.415l-.261-.592h-.272l-.112.592h-.353l.266-1.4h.814c.359,0,.553.1.492.428a.467.467,0,0,1-.451.38l.293.591Zm-.515-.86c.176,0,.328,0,.357-.149.023-.123-.129-.123-.306-.123h-.382l-.05.273Z" transform="translate(-259.634 -308.219)" fill="#020a19"/>
      </g>
      <path id="Costco-7" data-name="Costco" d="M220.658,348.528h43.987v-.015h-.036l-.556-2.419h-43.4Zm0-3.458h43.156l-.561-2.434h-42.6Zm0-3.472H263l-.19-.887-.389-1.693H220.658Zm91.916-2.6h7.677l-.494,2.6h-3.5l-.173.908h3.194l-.469,2.473h-3.194l-.177.933h3.619l-.494,2.6h-7.8Z" transform="translate(-219.786 -309.76)" fill="#020a19"/>
    </g>
  </g>
</svg>
