<svg xmlns="http://www.w3.org/2000/svg" width="131.778" height="30" viewBox="0 0 131.778 30">
  <path id="gartner-logo" d="M310.325-206.926l-.379,4.555h-1.86a4.464,4.464,0,0,0-3.261,1.359,4.464,4.464,0,0,0-1.252,3.3v10.287h-5.264v-19.5h4.986l.118,2.435a5.676,5.676,0,0,1,5.134-2.435Zm-36.494,19.5h-5.268v-10.318c0-2.159-.186-4.877-3.224-4.877-2.925,0-4.091,2.111-4.091,4.569v10.619h-5.267v-19.5h4.883l.112,2.493a6.612,6.612,0,0,1,5.871-2.969c5.308,0,6.983,3.79,6.983,7.734Zm-20.147-4.556-.369,4.438a13.689,13.689,0,0,1-3.742.461c-4.965,0-6.4-2.277-6.4-6.851v-18.492h5.268v5.5h5.243l-.364,4.555H248.44v8.045c0,1.836.5,2.827,2.386,2.827a8.642,8.642,0,0,0,2.86-.478m-12.249-14.948-.408,4.555H239.6A4.4,4.4,0,0,0,236.366-201a4.4,4.4,0,0,0-1.207,3.295v10.287h-5.268v-19.508h4.988l.1,2.435a5.7,5.7,0,0,1,5.142-2.435Zm-35.315,17.336a22.35,22.35,0,0,1-11.856,2.877c-8.74-.267-15.044-5.694-15.044-14.861,0-9.126,6.36-14.958,15.049-15.1a16.323,16.323,0,0,1,11.419,3.769l-3.708,3.751a11.482,11.482,0,0,0-8.058-2.422c-5.465.254-8.757,4.226-8.834,9.685-.072,5.915,3.556,9.993,9.227,10.141a13.838,13.838,0,0,0,6.234-1.034v-6.047h-5.889l.4-4.96h11.065Zm89.834-5.737H281.512a4.771,4.771,0,0,0,4.81,4.06,6.478,6.478,0,0,0,5.433-2.409l3.437,2.621a10.532,10.532,0,0,1-8.716,4.1,9.85,9.85,0,0,1-7.382-2.86,9.85,9.85,0,0,1-2.893-7.369,9.786,9.786,0,0,1,2.8-7.306,9.787,9.787,0,0,1,7.257-2.922c6.255,0,9.695,3.79,9.695,10.517Zm-5.278-4.078a4.1,4.1,0,0,0-1.419-2.954,4.1,4.1,0,0,0-3.131-.968,4.634,4.634,0,0,0-4.616,3.922Zm-64.1-.8v12.772h-4.644l-.118-1.923a7.6,7.6,0,0,1-6.125,2.4c-3.586,0-6.976-1.767-7.047-5.889-.107-6.478,7.287-6.935,11.93-6.935h.928v-.256c0-2.141-1.413-3.3-4.085-3.3a7.691,7.691,0,0,0-5.2,2.079l-3.04-3.088a13.215,13.215,0,0,1,8.69-3.072c6.042,0,8.705,2.793,8.705,7.208m-5.065,4.266h-.732c-2.495,0-6.875.128-6.858,2.736.024,3.674,7.591,2.506,7.591-1.925Zm84.706,6.243a2.12,2.12,0,0,1,.607-1.542,2.12,2.12,0,0,1,1.531-.634,2.12,2.12,0,0,1,1.519.641,2.12,2.12,0,0,1,.6,1.536,2.12,2.12,0,0,1-.594,1.548,2.12,2.12,0,0,1-1.526.647,2.12,2.12,0,0,1-1.538-.641,2.12,2.12,0,0,1-.6-1.555m2.138,2.632a2.619,2.619,0,0,0,1.877-.761,2.619,2.619,0,0,0,.773-1.872,2.615,2.615,0,0,0-.778-1.862,2.615,2.615,0,0,0-1.872-.753,2.618,2.618,0,0,0-1.88.749,2.618,2.618,0,0,0-.784,1.866,2.623,2.623,0,0,0,.779,1.876,2.623,2.623,0,0,0,1.885.757m-.556-2.422h.529l.8,1.311h.515l-.86-1.332a.787.787,0,0,0,.572-.248.787.787,0,0,0,.212-.586c0-.6-.353-.861-1.07-.861h-1.144v3.027h.457Zm0-.39v-.935h.624c.32,0,.66.069.66.444,0,.464-.347.491-.735.491Z" transform="translate(-179.221 216.691)" fill="#fff"/>
</svg>
