<svg xmlns="http://www.w3.org/2000/svg" width="210" height="102.973" viewBox="0 0 210 102.973">
  <g id="Gorillas" transform="translate(-1089.755)">
    <g id="Bounding_box" data-name="Bounding box" transform="translate(1089.755)" fill="#fff" stroke="#707070" stroke-width="1" opacity="0">
      <rect width="210" height="102.973" stroke="none"/>
      <rect x="0.5" y="0.5" width="209" height="101.973" fill="none"/>
    </g>
    <g id="Group_9790" data-name="Group 9790" transform="translate(1134.755 30.983)">
      <path id="Path_27" data-name="Path 27" d="M121.26,0H17.992A11.157,11.157,0,0,0,6.869,8.488L0,40.244H103.3a11.155,11.155,0,0,0,11.123-8.489Z" transform="translate(0 0.004)" fill="#020a19"/>
      <g id="Group_3" data-name="Group 3" transform="translate(14.351 7.336)">
        <path id="Path_28" data-name="Path 28" d="M1026.36,265a7.2,7.2,0,0,0-7.072,5.847l-2.952,13.837c-.734,3.441,1.061,5.847,4.578,5.847a7.172,7.172,0,0,0,7.072-5.847l2.953-13.84C1031.66,267.442,1029.87,265,1026.36,265Zm.776,5.551-3.078,14.43a2.352,2.352,0,0,1-2.333,2c-1.209,0-1.73-.814-1.477-2l3.078-14.43a2.349,2.349,0,0,1,2.333-2c1.2,0,1.731.815,1.471,2Z" transform="translate(-1002.667 -264.995)" fill="#fff"/>
        <path id="Path_29" data-name="Path 29" d="M531.086,277.669l-.631,2.96h1.905l-.94,4.4a2.383,2.383,0,0,1-2.4,1.96,1.476,1.476,0,0,1-1.56-1.96l3.158-14.654a2.363,2.363,0,0,1,2.352-1.924,1.416,1.416,0,0,1,1.54,1.888l-.751,3.513h3.662l.7-3.292c.672-3.145-.806-5.662-4.4-5.662a7.25,7.25,0,0,0-7.069,5.662L523.6,284.773c-.71,3.331.806,5.662,4.029,5.662a4.976,4.976,0,0,0,4.188-2.11l-.34,1.667h2.659l2.629-12.323Z" transform="translate(-523.428 -264.898)" fill="#fff"/>
        <path id="Path_30" data-name="Path 30" d="M2548.7,281l-7.982,21.091h-6.082l4.5-21.091h-3.885L2530,305.643h12.93l1.76-4.809h3.552l-.4,4.809h3.955L2552.99,281Zm-.01,16.542h-2.637l3.576-10.064Z" transform="translate(-2475.002 -280.552)" fill="#fff"/>
        <path id="Path_31" data-name="Path 31" d="M2155.14,302.094l4.5-21.094h-3.885l-5.26,24.646h9.49l.757-3.552Z" transform="translate(-2105.904 -280.552)" fill="#fff"/>
        <path id="Path_32" data-name="Path 32" d="M1948.16,281l-5.26,24.646h3.884l5.26-24.646Z" transform="translate(-1903.995 -280.552)" fill="#fff"/>
        <path id="Path_33" data-name="Path 33" d="M1484.03,297.1a2.743,2.743,0,0,0-1.653-3.405,4.659,4.659,0,0,0,3.2-3.477l.932-4.366c.71-3.331-1.055-4.848-3.766-4.848h-6.384l-5.26,24.643h3.884l2.218-10.4h1.905c1.063,0,1.4.814,1.187,1.813l-1.129,5.291c-.411,1.924-.146,3.308,1.357,3.308h1.67Zm-4.3-4.92h-1.869l1.667-7.807h2.168c.916,0,1.2.554.979,1.592l-.956,4.477a1.963,1.963,0,0,1-1.989,1.735Z" transform="translate(-1445.127 -280.552)" fill="#fff"/>
        <path id="Path_34" data-name="Path 34" d="M3374.57,266.4c-3.775,0-6.256,2.7-6.965,6.03-.672,3.145.973,6.033,2.551,8.068,1.585,2.182,2.309,3.774,1.851,5.919a2.475,2.475,0,0,1-2.524,2.22c-1.354,0-1.861-.889-1.529-2.442l.449-2.11h-3.553l-.466,2.184c-.743,3.477.989,5.662,4.506,5.662a7.184,7.184,0,0,0,7.009-6.069c.664-3.109-.567-5.587-2.417-8.068-1.751-2.442-2.475-3.627-1.962-6.03a2.352,2.352,0,0,1,2.329-2c1.245,0,1.673.925,1.379,2.3l-.474,2.22h3.517l.475-2.22C3379.46,268.7,3377.83,266.4,3374.57,266.4Z" transform="translate(-3286.347 -266.356)" fill="#fff"/>
      </g>
    </g>
  </g>
</svg>
