<svg xmlns="http://www.w3.org/2000/svg" width="210" height="102.973" viewBox="0 0 210 102.973">
  <g id="Hilton_-_color" data-name="Hilton - color" transform="translate(-1350)">
    <g id="Bounding_box" data-name="Bounding box" transform="translate(1350)" fill="#fff" stroke="#707070" stroke-width="1" opacity="0">
      <rect width="210" height="102.973" stroke="none"/>
      <rect x="0.5" y="0.5" width="209" height="101.973" fill="none"/>
    </g>
    <g id="Hilton_Worldwide_logo" transform="translate(1393 28.624)">
      <path id="Path_11" data-name="Path 11" d="M0-399.138v22.862H123.193V-422H0Zm121.135,0v20.8L61.63-378.36l-59.516-.032L2.08-399.171l-.022-20.771H121.135Z" transform="translate(0 422)" fill="#020a19"/>
      <path id="Path_12" data-name="Path 12" d="M98-324.415v.585l.466.076c.249.033.618.1.813.13l.347.054L99.6-312.659l-.033,10.9-.78.087-.791.1v1.279h8.235v-1.279l-.78-.1-.791-.087-.033-4.962-.022-4.952H115.44v4.919c0,4.106-.022,4.93-.152,4.973a6.7,6.7,0,0,1-.921.141l-.769.076v1.268h8.451v-1.279l-.726-.076a6.978,6.978,0,0,1-.867-.13c-.119-.043-.141-1.994-.141-10.922V-323.57l.433-.065c.238-.033.628-.1.867-.13l.433-.065V-325H113.6v1.17l.52.065c.282.043.693.1.921.13l.4.065v9.3H104.609v-9.3l.466-.076c1.279-.2,1.159-.119,1.159-.769V-325H98Z" transform="translate(-87.382 335.51)" fill="#020a19"/>
      <path id="Path_13" data-name="Path 13" d="M368.309-324.751a2.433,2.433,0,0,0-1.195,2.757,2.433,2.433,0,0,0,2.395,1.815,2.327,2.327,0,0,0,1.864-.856,2.346,2.346,0,0,0-.011-3.164,2.429,2.429,0,0,0-3.053-.552Z" transform="translate(-327.256 335.564)" fill="#020a19"/>
      <path id="Path_14" data-name="Path 14" d="M457-324.469v.531l.737.087.726.1.032,11.073.022,11.062-.293.065c-.173.032-.509.087-.758.119l-.466.076v1.062h7.693v-1.062l-.455-.076c-.26-.033-.6-.087-.758-.119l-.3-.065V-325H457Z" transform="translate(-407.484 335.51)" fill="#020a19"/>
      <path id="Path_15" data-name="Path 15" d="M548.558-305.218l-2.2.661v3.738H543v1.625h3.24l.033,6.577c.043,7.324.043,7.249.791,8.289,1.138,1.56,4.54,1.723,8.592.4l.672-.227v-1.192l-.325.076a13.355,13.355,0,0,1-1.712.076c-1.972.011-2.6-.228-3.077-1.192l-.249-.509-.032-6.154-.033-6.143h4.128v-1.625H550.91v-2.546a20.808,20.808,0,0,0-.076-2.535C550.779-305.89,549.761-305.586,548.558-305.218Z" transform="translate(-484.166 318.48)" fill="#020a19"/>
      <path id="Path_16" data-name="Path 16" d="M682.086-263.586a11.041,11.041,0,0,0-4.789,1.929,9.02,9.02,0,0,0-2.9,4.561,16.24,16.24,0,0,0-.173,5.352,7.572,7.572,0,0,0,2.124,4.453c1.408,1.419,3.348,2.113,6.284,2.232a9.859,9.859,0,0,0,7.476-2.416,8.349,8.349,0,0,0,2.676-6.208,11.172,11.172,0,0,0-.553-4.356,7,7,0,0,0-1.961-3.175,5.936,5.936,0,0,0-1.9-1.387,9.433,9.433,0,0,0-4.388-1C683.148-263.619,682.292-263.608,682.086-263.586Zm1.95,1.344a3.65,3.65,0,0,1,2.763,2.33,12.272,12.272,0,0,1,.921,5.623c0,5.428-1.322,7.877-4.28,7.888a3.163,3.163,0,0,1-2.514-.986c-1.376-1.409-2.048-4.681-1.766-8.516s1.441-5.927,3.5-6.338a2.691,2.691,0,0,1,1.376,0Z" transform="translate(-601.041 280.771)" fill="#020a19"/>
      <path id="Path_17" data-name="Path 17" d="M875.615-262.714a10.063,10.063,0,0,0-4.442,1.994,5.566,5.566,0,0,1-.9.6,3.4,3.4,0,0,1-.1-1.138V-262.4H864v1.17l.52.065c.282.043.639.1.812.13l.293.065v14.8l-.618.065c-1.008.119-1.008.119-1.008.726v.531h7.8v-.542a1.1,1.1,0,0,0-.076-.553c-.044-.011-.4-.065-.791-.141l-.7-.119V-258.77l.542-.358a9.485,9.485,0,0,1,1.409-.693,3.894,3.894,0,0,1,1.842-.358,2.464,2.464,0,0,1,2.134.78c.856.9.975,1.907.932,8.267l-.033,4.93-.7.119c-.39.076-.737.13-.78.141a1.038,1.038,0,0,0-.087.553v.542h7.8v-.531c0-.607,0-.607-1-.715l-.617-.076-.033-6.306c-.033-6.241-.043-6.306-.293-7.054a4.293,4.293,0,0,0-1.311-2.145,4.489,4.489,0,0,0-2.535-1.051A4.8,4.8,0,0,0,875.615-262.714Z" transform="translate(-770.386 280.061)" fill="#020a19"/>
      <path id="Path_18" data-name="Path 18" d="M354-258.469v.531l.52.065c.282.043.639.1.813.13l.293.065-.022,7.433-.033,7.444-.7.119c-.39.076-.737.13-.78.141a1.038,1.038,0,0,0-.087.553v.542h7.812l-.032-.5c-.043-.6-.119-.661-.975-.748l-.628-.065V-259H354Z" transform="translate(-315.644 276.661)" fill="#020a19"/>
    </g>
  </g>
</svg>
