<svg xmlns="http://www.w3.org/2000/svg" width="210" height="102.973" viewBox="0 0 210 102.973">
  <g id="Marriott_intl_color" data-name="Marriott intl color" transform="translate(-310)">
    <g id="Bounding_box" data-name="Bounding box" transform="translate(310)" fill="#fff" stroke="#707070" stroke-width="1" opacity="0">
      <rect width="210" height="102.973" stroke="none"/>
      <rect x="0.5" y="0.5" width="209" height="101.973" fill="none"/>
    </g>
    <g id="Marriott_intl_color-2" data-name="Marriott intl color" transform="translate(347 29.498)">
      <path id="Marriott_intl_color-3" data-name="Marriott intl color" d="M99.8,155.447v-7.026h1.551v7.026Zm9.425,0-3.392-4.458v4.458h-1.526v-7.026h1.429l3.271,4.337v-4.337h1.526v7.026Zm6.832-5.6v5.6h-1.551v-5.6h-2.132v-1.429h5.815v1.429Zm4,5.6v-7.026h5.282V149.8h-3.755v1.4h3.3v1.381h-3.3v1.5h3.8v1.381Zm12.138,0-1.5-2.253h-1.211v2.253h-1.551v-7.026h3.2c1.648,0,2.641.872,2.641,2.326v.024a2.168,2.168,0,0,1-1.5,2.181l1.72,2.52H132.2Zm.024-4.628c0-.678-.46-.993-1.211-.993h-1.526v2.011h1.551c.751,0,1.187-.412,1.187-1.018Zm9.013,4.628-3.392-4.458v4.458h-1.526v-7.026h1.429l3.271,4.337v-4.337h1.526v7.026Zm8.989,0-.63-1.575h-2.98l-.63,1.575H144.4l3-7.075h1.429l3,7.075Zm-2.132-5.233-.921,2.277h1.866Zm7.777-.363v5.6h-1.551v-5.6h-2.132v-1.429H158v1.429Zm4.167,5.6v-7.026h1.551v7.026Zm7.656.121a3.6,3.6,0,0,1-3.707-3.61v-.024a3.72,3.72,0,0,1,7.438-.024v.024a3.607,3.607,0,0,1-3.731,3.634Zm2.132-3.634a2.121,2.121,0,0,0-2.059-2.2h-.073a2.111,2.111,0,0,0-2.108,2.181v.024a2.121,2.121,0,0,0,2.059,2.2h.073a2.117,2.117,0,0,0,2.108-2.2Zm9.037,3.513-3.392-4.458v4.458h-1.5v-7.026H175.4l3.271,4.337v-4.337h1.526v7.026Zm8.989,0-.63-1.575h-2.956l-.63,1.575h-1.575l3-7.075h1.429l3,7.075Zm-2.108-5.233-.921,2.277h1.866Zm5.476,5.233v-7.026h1.551v5.621h3.489v1.4Z" transform="translate(-75.621 -112.37)"/>
      <path id="Marriott_intl_color-4" data-name="Marriott intl color" d="M72.539,13.616a5.965,5.965,0,0,0-2.641-.7,3.752,3.752,0,0,0-3.15,1.793V29.025h-5.6V8.94H66.26l.315,2.108A5.031,5.031,0,0,1,70.77,8.5a5.551,5.551,0,0,1,1.769.315v4.8Zm13.277-4.8A6.164,6.164,0,0,0,84.047,8.5a5.031,5.031,0,0,0-4.191,2.544l-.315-2.1H74.429V29.025h5.6V14.706a3.792,3.792,0,0,1,3.15-1.793,5.965,5.965,0,0,1,2.641.7ZM57.736,14.7V29.025H52.6l-.315-2.084a6.959,6.959,0,0,1-5.379,2.52c-3.2,0-5.4-2.447-5.4-5.742,0-7.1,8.359-8.092,10.66-8.334V14.8c0-1.163-.969-2.374-3.562-2.374a9.143,9.143,0,0,0-5.209,1.793v-4.14A15.784,15.784,0,0,1,50.37,8.528c5.136-.028,7.365,2.326,7.365,6.178Zm-5.6,4.579c-1.769,0-5.015.606-5.015,3.416A2.273,2.273,0,0,0,49.3,25.149c1.575,0,2.835-1.139,2.835-3.707ZM21.466,3,26.5,13.81l-1.962,4.24L16.136,0,9.764,2.98l5.015,10.806c-.388.848-1.018,2.2-2.035,4.385-2.3,4.918-4.07,6.3-7.22,6.3a8.275,8.275,0,0,1-2.544-.46L0,30.406a12.818,12.818,0,0,0,4.749.993c3.731,0,6.469-2.423,8.843-7.535l2.932-6.3,5.33,11.484h7.777L26.263,21.8l1.962-4.24,5.33,11.484h7.777L27.862,0Zm111.57,5.94V2.3l-5.6,2.617V8.94h-1.793v3.489h1.793v16.6h5.6v-16.6h2.835V8.94ZM87.9,29.025h5.6V8.94H87.9ZM121.164,2.3l-5.6,2.617V8.94h-1.793v3.489h1.793v16.6h5.6v-16.6H124V8.94h-2.835ZM112.49,17.321v3.3c0,4.8-2.326,8.819-8.068,8.819-5.718,0-8.068-4-8.068-8.819v-3.3c0-4.8,2.326-8.819,8.068-8.819S112.49,12.548,112.49,17.321Zm-5.645-.775c0-2.4-.581-4.095-2.423-4.095s-2.422,1.7-2.422,4.1v4.894c0,2.4.581,4.095,2.423,4.095,1.866,0,2.423-1.7,2.423-4.095Z"/>
    </g>
  </g>
</svg>
