<svg xmlns="http://www.w3.org/2000/svg" width="210" height="102.973" viewBox="0 0 210 102.973">
  <g id="Merck_-_color" data-name="Merck - color" transform="translate(-570)">
    <g id="Bounding_box" data-name="Bounding box" transform="translate(570)" fill="#fff" stroke="#707070" stroke-width="1" opacity="0">
      <rect width="210" height="102.973" stroke="none"/>
      <rect x="0.5" y="0.5" width="209" height="101.973" fill="none"/>
    </g>
    <g id="Merck_-_color-2" data-name="Merck - color" transform="translate(601.001 29.499)">
      <path id="Merck" d="M102.779,160.495h6.692v21.6h-4.959V167.569l-6.344,14.524-6.677-14.542v14.542H86.864v-21.6h6.614l4.769,11.179Z" transform="translate(-32.568 -149.696)"/>
      <path id="Merck-2" data-name="Merck" d="M96.061,160.495v21.6h12.462v-3.662h-7.631v-5.495h7.315v-3.7h-7.315v-4.955h7.631v-3.79Z" transform="translate(-16.692 -149.696)"/>
      <path id="Merck_" data-name="Merck " d="M107.449,171.493c0,8.04,8.391,14.473,17.231,10.17v-4.627c-6.8,4.766-12.725-.011-12.627-5.358a7.137,7.137,0,0,1,7.074-7.2,6.641,6.641,0,0,1,5.553,2.1v-4.812c-6.388-3.786-17.231.381-17.231,9.72" transform="translate(2.968 -149.892)"/>
      <path id="Merck_2" data-name="Merck " d="M114.517,181.961h4.593v-21.39h-4.593Z" transform="translate(15.17 -149.564)"/>
      <path id="Merck_-_color-3" data-name="Merck - color" d="M121.672,170.35l6.941-9.761h-5.365l-6.877,9.743,7.984,11.6h5.268Z" transform="translate(18.372 -149.534)"/>
      <path id="Merck_-_color-4" data-name="Merck - color" d="M101.418,160.493v21.6h4.848v-11.6l8.014,11.6h5.168l-6.344-9.069a5.966,5.966,0,0,0,3.9-6.044,6.776,6.776,0,0,0-7.074-6.488Zm4.848,3.594h2.116c3.578,0,3.769,2.339,3.769,3.212a3.171,3.171,0,0,1-3.243,3.09h-2.642Z" transform="translate(-7.443 -149.7)"/>
      <path id="Merck_-_color-5" data-name="Merck - color" d="M77.748,167.334a10.8,10.8,0,1,1,21.6,0Zm0,21.6a10.8,10.8,0,0,1,10.8-10.8,10.8,10.8,0,0,1-10.8-10.8,10.8,10.8,0,1,0,0,21.6m0,0a10.8,10.8,0,0,0,21.6,0Zm10.8-10.8a10.8,10.8,0,0,1,10.8,10.8,10.8,10.8,0,0,0,0-21.6,10.8,10.8,0,0,1-10.8,10.8" transform="translate(-66.948 -156.534)" fill="#020a19"/>
    </g>
  </g>
</svg>
