<svg xmlns="http://www.w3.org/2000/svg" width="210" height="102.973" viewBox="0 0 210 102.973">
  <g id="Polaris_color" data-name="Polaris color" transform="translate(-831)">
    <g id="Bounding_box" data-name="Bounding box" transform="translate(831)" fill="#fff" stroke="#707070" stroke-width="1" opacity="0">
      <rect width="210" height="102.973" stroke="none"/>
      <rect x="0.5" y="0.5" width="209" height="101.973" fill="none"/>
    </g>
    <g id="Polaris_Industries_logo_color" transform="translate(855 40.987)">
      <path id="Path_37" data-name="Path 37" d="M661.217,368.2H641.7v20.055h6.251v-5.313H661.2a5.006,5.006,0,0,0,5-5.018v-4.706a4.98,4.98,0,0,0-4.983-5.018Zm-1.25,8.265a1.508,1.508,0,0,1-1.493,1.511h-10.5v-4.862h10.5a1.5,1.5,0,0,1,1.493,1.511Z" transform="translate(-641.7 -368.165)" fill="#020a19"/>
      <path id="Path_38" data-name="Path 38" d="M808.723,368.2h-7.015a6,6,0,0,0-5.99,6.008v3.82l9.6-1.65-2.136-3.976,3.959,2.448Zm-1.6,13.353L803.166,384l2.136-3.959-9.6-1.632v3.82a6.006,6.006,0,0,0,5.99,6.008h7.015Zm9.1-13.353h-7.015l1.6,6.668,3.959-2.448-2.17,3.959,9.619,1.65v-3.82a6,6,0,0,0-5.992-6.009Zm-3.629,11.842L814.748,384l-3.959-2.448-1.6,6.7H816.2a6.01,6.01,0,0,0,6.008-6.008V378.41Z" transform="translate(-768.96 -368.165)" fill="#020a19"/>
      <path id="Path_39" data-name="Path 39" d="M979.81,383.237h-10.3a2,2,0,0,1-2-2V368.2H961.3v17.051a2.994,2.994,0,0,0,3,3h15.51Z" transform="translate(-905.806 -368.165)" fill="#020a19"/>
      <path id="Path_40" data-name="Path 40" d="M1096.61,368.2h-12.5a6.01,6.01,0,0,0-6.008,6.008v14.03h6.216v-5.3h12v5.313l6.3-.035V374.19a6.006,6.006,0,0,0-6.008-5.99Zm-.313,9.776h-12.015v-2.431a2.416,2.416,0,0,1,2.431-2.431h7.154a2.427,2.427,0,0,1,2.431,2.431Z" transform="translate(-1002.326 -368.165)" fill="#020a19"/>
      <path id="Path_41" data-name="Path 41" d="M1256.8,377.459v-4.341a5.006,5.006,0,0,0-5-5.018h-19.5v20.055h6.216v-5.279h10.557a1.5,1.5,0,0,1,1.493,1.511v3.785h6.251V383.5a3,3,0,0,0-3-3h0a3.043,3.043,0,0,0,2.983-3.041Zm-8.821.486h-9.48v-4.966h9.48a2.483,2.483,0,1,1,0,4.966Z" transform="translate(-1129.751 -368.083)" fill="#020a19"/>
      <rect id="Rectangle_4" data-name="Rectangle 4" width="6.251" height="20.055" transform="translate(129.289 0.052)" fill="#020a19"/>
      <path id="Path_42" data-name="Path 42" d="M1451.06,380.328h.764a1.38,1.38,0,0,1,0,2.761H1435v5h19.5a5.006,5.006,0,0,0,5-5.018V380.71a5.017,5.017,0,0,0-5-5.018h-5.26l-5.99-.017h-.608a1.38,1.38,0,1,1,0-2.761h15.749V368h-18.353a5.017,5.017,0,0,0-5,5.018v2.292a5.006,5.006,0,0,0,5,5.018h11.026Z" transform="translate(-1297.255 -368)" fill="#020a19"/>
    </g>
  </g>
</svg>
