<svg xmlns="http://www.w3.org/2000/svg" width="210" height="102.973" viewBox="0 0 210 102.973">
  <g id="Saic_-_color" data-name="Saic - color" transform="translate(-1090)">
    <g id="Bounding_box" data-name="Bounding box" transform="translate(1090)" fill="#fff" stroke="#020a19" stroke-width="1" opacity="0">
      <rect width="210" height="102.973" stroke="none"/>
      <rect x="0.5" y="0.5" width="209" height="101.973" fill="none"/>
    </g>
    <g id="SAIC_Logo_color" transform="translate(1140 33.987)">
      <path id="Path_43" data-name="Path 43" d="M12.7,8.53c.5-2.34.166-3.127,3.583-3.127,4.515,0,14.373.021,14.373.021L32.038-.044H14.6c-2.278,0-7.248-.663-8.6,8.056-.58,3.748-.911,5.592-.994,6.793C4.784,17.87,7.621,18.781,10,18.781H20.337c1.553,0,2.2,0,1.988,1.118-.373,1.988-1.18,5.819-1.45,6.979-.414,1.822-2.609,1.553-4.6,1.574H1.3L0,33.92H18.742c3.976,0,7.621-1.367,8.615-5.136,1.015-3.852,1.533-6.461,2.112-9.527.7-3.666-1.636-6.358-5.944-6.358H14.414c-.973,0-2.568.228-2.257-1.367.124-.7.228-1.533.538-3" transform="translate(0 0.056)" fill="#020a19"/>
      <path id="Path_44" data-name="Path 44" d="M160.81,34.123h6.959L163.5.2h-7.8L136,34.123h7.476s3.769-6.42,3.935-6.71H158.2l1.18-5.053h-9.237c.642-1.035,7.725-12.612,7.87-12.882.041.228,2.8,24.645,2.8,24.645" transform="translate(-107.835 -0.147)" fill="#020a19"/>
      <path id="Path_45" data-name="Path 45" d="M319.925,0h-7.808L304.6,33.964h7.953Z" transform="translate(-241.518 0.012)" fill="#020a19"/>
      <path id="Path_46" data-name="Path 46" d="M393.723,8.529c.228-1.077.518-3,3.127-3h15.077L413.315.1H394.9c-7,0-7.456,6.751-7.911,8.988s-3.583,16.2-3.728,16.837c-.808,3.976,1.284,8.16,7.373,8.16h16.8L408.7,28.6H393.25c-2.962,0-3.044-1.76-2.609-3.976l1.532-8.015h0s.87-4.908,1.553-8.077" transform="translate(-303.76 -0.068)" fill="#020a19"/>
    </g>
  </g>
</svg>
