<svg xmlns="http://www.w3.org/2000/svg" width="210" height="102.973" viewBox="0 0 210 102.973">
  <g id="Wolt_-_color" data-name="Wolt - color" transform="translate(-1349.755)">
    <g id="Bounding_box" data-name="Bounding box" transform="translate(1349.755)" fill="#fff" stroke="#707070" stroke-width="1" opacity="0">
      <rect width="210" height="102.973" stroke="none"/>
      <rect x="0.5" y="0.5" width="209" height="101.973" fill="none"/>
    </g>
    <g id="wolt_color" transform="translate(1400.755 30.92)">
      <g id="Group_4" data-name="Group 4">
        <path id="Path_49" data-name="Path 49" d="M180.25,217c-1.229,0-2.37.044-2.9.088-1.1.088-1.448,1.141-1.4,2.15,1.009,14.789-2.37,31.949-6.1,31.9-2.765-.044-3.467-8.075-3.379-15.228.044-4.213.307-8.294.439-11.893.044-1.317-.439-1.58-1.4-1.711a10.869,10.869,0,0,0-3.95.088c-1.1.219-1.36,1.141-2.545,3.906-5.924,13.736-11.63,24.8-11.63,24.8-1.361-11.1.614-21.855,2.282-29.71.219-1.1-.263-1.711-1.185-1.711-1.668,0-4.257.044-5.4.79a4.016,4.016,0,0,0-1.843,3.028c-1.887,9-3.16,20.275-1.4,29.008.4,1.887.79,2.326,1.58,2.853a18.6,18.6,0,0,0,5.529.965A4.225,4.225,0,0,0,150.979,254c2.458-4.125,4.432-8.294,8.207-16.281.307,10.445,1.712,18.651,9.04,18.739,9.743.088,16.194-24.137,16.325-35.854.088-3.028-1.448-3.555-4.3-3.6" transform="translate(-139 -217)"/>
        <path id="Path_50" data-name="Path 50" d="M251.345,253.315c-2.15,0-3.6-1.887-3.555-5.573.044-7.066,2.633-14.658,7.153-14.614a4.206,4.206,0,0,1,1.36.219c-.088.263-.132.483-.175.614-.7,3.994.088,6.583,2.019,7.987-1.009,6.232-3.818,11.366-6.8,11.366m52-22.206s-3.291-.219-7.065-.4c0,0,.79-4.213,1.185-5.881a1.608,1.608,0,0,0-1.317-1.931,17.987,17.987,0,0,0-4.257-.219,1.648,1.648,0,0,0-1.492,1.185c-.4,1.756-.834,3.862-1.317,6.583-1.4-.044-2.765-.088-3.73-.044a1.376,1.376,0,0,0-1.492,1.185,15.4,15.4,0,0,0-.4,2.853c-.044.834.834,1.229,1.755,1.185,0,0,1.141-.044,2.9-.132-.351,1.536-1.009,5.661-1.317,8.207-1.624,5.31-4.959,9.216-7.812,9.216-1.756,0-2.765-1.053-2.721-4.169a64.6,64.6,0,0,1,2.589-15.272c2.106-4.915,3.335-10.357,3.335-12.858,0-.922-.263-1.975-1.361-2.194a11.064,11.064,0,0,0-5.266.044c-1.185.351-1.448,1.624-1.624,2.282-.7,3.248-1.887,8.953-2.765,14-1.8,2.106-3.818,3.6-6.012,3.95-.263-6.671-4.125-9.567-9.479-9.611-9.392-.088-15.448,8.207-15.492,17.6-.088,7.592,4.038,10.8,10.094,10.84,7.109.044,12.463-4.959,14.526-14.219a11.2,11.2,0,0,0,5.31-2.721,64.334,64.334,0,0,0-1.229,9.128c-.044,5.135,2.107,7.987,7.285,8.031,4.257.044,7.987-2.94,10.313-6.539.571,4.74,3.028,6.671,7.066,6.671,3.686.044,7.285-2.282,9.83-6.495.527-.834.878-1.58.57-1.931-.746-.834-2.106-1.316-2.5-.614-1.711,3.028-3.467,4.257-5.442,4.213-1.536,0-2.765-.922-2.765-3.6.044-3.862,2.282-14.219,2.282-14.219,1.887-.044,4.037-.088,6.012-.132,1.756-.044,3.028-.571,3.335-2.238.175-1.053-.4-1.712-1.536-1.755" transform="translate(-195.788 -217.636)"/>
      </g>
    </g>
  </g>
</svg>
